<?xml version="1.0" encoding="UTF-8"?><svg id="couch-logo" xmlns="http://www.w3.org/2000/svg" viewBox="0 0 46 32"><path id="Couch" class="cls-1" d="m4.6,9.14C4.6,4.09,8.72,0,13.8,0h18.4c5.08,0,9.2,4.09,9.2,9.14v2.4c-2.62.53-4.6,2.84-4.6,5.6v3.43H9.2v-3.43c0-2.76-1.98-5.07-4.6-5.6v-2.4Zm34.5,8c0-1.49.96-2.76,2.3-3.24.36-.13.75-.19,1.15-.19,1.9,0,3.45,1.54,3.45,3.43v12.57c0,1.26-1.03,2.29-2.3,2.29h-2.3c-1.27,0-2.3-1.02-2.3-2.29H6.9c0,1.26-1.03,2.29-2.3,2.29h-2.3c-1.27,0-2.3-1.02-2.3-2.29v-12.57c0-1.89,1.55-3.43,3.45-3.43.4,0,.79.07,1.15.19,1.34.47,2.3,1.74,2.3,3.24v5.71h32.2v-5.71Z"/></svg>